<svg width="110" height="111" viewBox="0 0 110 111" fill="none" xmlns="http://www.w3.org/2000/svg">
<path d="M65.5931 98.7881C65.428 98.7881 65.3455 98.8688 65.3455 99.0303V99.2724C65.3455 99.4338 65.428 99.5146 65.5931 99.5146H98.2574C98.505 99.5146 98.6287 99.4338 98.6287 99.2724V99.0303C98.6287 98.8688 98.505 98.7881 98.2574 98.7881H94.422C91.8649 98.7881 90.0502 98.3442 88.9778 97.4563C87.9879 96.5684 87.163 95.1157 86.5033 93.0978C82.3788 80.6677 78.5434 68.2376 74.9964 55.8076C71.4495 43.3775 67.9439 30.8667 64.4795 18.2751C63.9845 16.5801 63.9845 15.1677 64.4795 14.0377C64.9744 12.9077 66.1292 12.3427 67.9439 12.3427H75.3677C75.6151 12.3427 75.7387 12.2216 75.7387 11.9794V11.8584C75.7387 11.6969 75.6151 11.6162 75.3677 11.6162H25.876C25.5459 11.6162 25.381 11.6969 25.381 11.8584V11.9794C25.381 12.2216 25.5459 12.3427 25.876 12.3427H35.032C36.6816 12.3427 37.5065 13.0691 37.5065 14.522C37.5065 15.1677 37.4239 15.8135 37.2589 16.459C37.0941 17.024 36.8053 17.8715 36.3929 19.0016C35.6506 20.858 34.7432 23.0777 33.6708 25.6607C32.6811 28.1627 31.6499 30.7456 30.5776 33.4092C29.5052 36.0729 28.4742 38.6556 27.4843 41.1578C26.4946 43.66 25.6284 45.8394 24.8861 47.6956C23.3189 51.6507 21.7104 55.5251 20.0607 59.3186C18.4933 63.1123 17.091 66.7443 15.8538 70.2151C14.6165 73.6052 13.5855 76.8337 12.7606 79.9009C12.0183 82.8874 11.647 85.6317 11.647 88.1337C11.647 92.4117 12.7195 95.5191 14.8641 97.4563C17.0087 99.3935 19.6894 100.362 22.9065 100.362C25.5459 100.362 27.9381 99.676 30.0827 98.3038C32.2273 96.8509 34.2483 95.0754 36.1455 92.9767C38.1251 90.7974 39.981 88.497 41.7132 86.0755C43.5279 83.5735 45.3838 81.2731 47.2811 79.1744C49.1781 76.9951 51.1579 75.2195 53.22 73.8474C55.3647 72.3945 57.6743 71.668 60.1489 71.668C64.1082 71.668 67.1602 72.798 69.3049 75.0581C71.4495 77.318 73.0169 79.9009 74.0065 82.8067C74.6665 84.5824 75.1615 86.2773 75.4914 87.8916C75.9038 89.5059 76.3162 90.9588 76.7286 92.2503C76.8937 92.9767 76.9348 93.7435 76.8523 94.5507C76.8523 95.3579 76.605 96.0841 76.11 96.7298C75.6976 97.2949 74.9553 97.7792 73.8828 98.1827C72.893 98.5863 71.532 98.7881 69.7998 98.7881H65.5931ZM32.6811 49.6328C37.3828 49.6328 40.8058 50.6821 42.9505 52.7808C45.0951 54.7987 46.1675 58.1078 46.1675 62.7087V75.3002C44.3528 76.5915 42.5794 77.9637 40.8472 79.4166C39.115 80.8695 37.4239 82.2013 35.7743 83.412C34.1246 84.6228 32.5161 85.6315 30.9489 86.4387C29.3815 87.1652 27.8144 87.5284 26.247 87.5284C23.9375 87.5284 21.8341 86.8423 19.9368 85.4703C18.0398 84.0174 17.091 81.6363 17.091 78.3269C17.091 76.309 17.4211 74.0088 18.0809 71.4259C18.8232 68.7622 19.6483 66.0986 20.5554 63.4351C21.5453 60.7715 22.5352 58.2289 23.5251 55.8076C24.5148 53.3861 25.3396 51.3279 25.9996 49.6328H32.6811ZM37.5065 20.3334C38.4964 17.9119 39.7336 16.3381 41.2183 15.6117C42.7856 14.8852 44.4353 14.4816 46.1675 14.4009V35.4675C46.1675 40.2296 45.1365 43.66 43.0744 45.7587C41.012 47.8571 37.5476 48.9064 32.6811 48.9064H26.247C27.4843 45.7587 28.7217 42.6107 29.959 39.4628C31.1963 36.2343 32.351 33.2882 33.4234 30.6245C34.4956 27.9609 35.3618 25.701 36.0216 23.8445C36.7642 21.9881 37.2589 20.8177 37.5065 20.3334ZM68.4389 63.3141C68.6037 63.8791 68.7687 64.5652 68.9336 65.3723C69.0986 66.1793 69.1812 66.9461 69.1812 67.6725C69.2637 68.399 69.2223 69.0851 69.0575 69.7308C68.975 70.2958 68.7274 70.6994 68.315 70.9416C68.1501 71.0223 67.8614 71.0626 67.449 71.0626C66.6241 71.0626 65.6342 70.9012 64.4795 70.5783C63.4071 70.1748 61.9224 69.973 60.0252 69.973C57.7155 69.973 55.4883 70.4573 53.3437 71.4259C51.1991 72.3137 49.0545 73.4438 46.9098 74.816V62.7087C46.9098 58.0271 47.8997 54.6776 49.8793 52.6597C51.9416 50.6418 55.406 49.6328 60.2725 49.6328H64.6032C65.263 51.8929 65.8816 54.1933 66.4591 56.5339C67.1191 58.7939 67.7789 61.054 68.4389 63.3141ZM60.2725 48.9064C55.5709 48.9064 52.1478 47.8167 50.0032 45.6376C47.9409 43.4582 46.9098 40.0681 46.9098 35.4675V14.4009C49.797 14.4816 51.9416 15.087 53.3437 16.217C54.746 17.3469 55.7359 18.8805 56.3134 20.8177C57.2206 23.8849 58.3755 27.8802 59.7778 32.8039C61.1799 37.7274 62.7059 43.095 64.3556 48.9064H60.2725Z" fill="white"/>
</svg>
