<svg width="352" height="99" viewBox="0 0 352 99" fill="none" xmlns="http://www.w3.org/2000/svg">
<g clip-path="url(#clip0_85_233)">
<path d="M0 13.2C0 5.90984 6.22909 0 13.913 0H338.087C345.771 0 352 5.90984 352 13.2V85.8C352 93.0904 345.771 99 338.087 99H13.913C6.22908 99 0 93.0904 0 85.8V13.2Z" fill="black" fill-opacity="0.15"/>
<path fill-rule="evenodd" clip-rule="evenodd" d="M0 85.8V13.2C0 5.90984 6.22908 0 13.913 0H338.087C345.771 0 352 5.90984 352 13.2V85.8C352 93.0904 345.771 99 338.087 99H13.913C6.22909 99 0 93.0904 0 85.8ZM2.08696 85.8V13.2C2.08696 7.00339 7.3817 1.98 13.913 1.98H338.087C344.618 1.98 349.913 7.00339 349.913 13.2V85.8C349.913 91.9967 344.618 97.02 338.087 97.02H13.913C7.3817 97.02 2.08696 91.9967 2.08696 85.8Z" fill="#FFF4DF"/>
<path d="M79.5443 51.5163C79.5081 45.714 82.2789 41.3409 87.8748 38.1164C84.745 33.8625 80.0104 31.5229 73.769 31.072C67.8595 30.6296 61.394 34.339 59.0266 34.339C56.5247 34.339 50.8035 31.2251 46.3019 31.2251C37.0117 31.3613 27.1385 38.2526 27.1385 52.2734C27.1385 56.4168 27.9367 60.6962 29.5328 65.1032C31.6671 70.9057 39.3611 85.1221 47.3869 84.8924C51.5837 84.7987 54.5519 82.0676 60.013 82.0676C65.3127 82.0676 68.0567 84.8924 72.7381 84.8924C80.8355 84.7815 87.7941 71.8587 89.8205 66.0389C78.9614 61.1811 79.5443 51.8141 79.5443 51.5163ZM70.1189 25.5675C74.6657 20.4457 74.2532 15.7835 74.1189 14.1074C70.1015 14.3287 65.4563 16.7023 62.8108 19.6205C59.8965 22.7514 58.1837 26.6224 58.5514 30.9869C62.8915 31.3017 66.8551 29.1833 70.1189 25.5675Z" fill="#FFF4DF"/>
<path d="M110.196 29.6694H112.424C114.576 29.6694 115.837 30.5872 115.837 32.1341V32.1547C115.837 33.5881 114.511 34.5266 112.489 34.5266C110.424 34.5266 109.109 33.7531 108.935 32.3816L108.924 32.2991H106.543L106.554 32.4228C106.717 34.8772 109.022 36.5478 112.489 36.5478C115.848 36.5478 118.326 34.7122 118.326 32.2578V32.2372C118.326 30.2366 117.032 28.8238 114.935 28.5763V28.4938C116.674 28.1122 117.848 26.7303 117.848 25.0803V25.0597C117.848 22.76 115.695 21.1719 112.543 21.1719C109.261 21.1719 107.119 22.7084 106.957 25.2247L106.945 25.3691H109.283L109.293 25.2247C109.478 23.9459 110.62 23.1931 112.468 23.1931C114.348 23.1931 115.435 23.9872 115.435 25.3072V25.3278C115.435 26.7509 114.228 27.7306 112.359 27.7306H110.196V29.6694Z" fill="#FFF4DF"/>
<path d="M126.199 36.4961C127.72 36.4961 129.036 35.7536 129.699 34.5882H129.753V36.3001H132.101V28.8236C132.101 26.6476 130.329 25.2451 127.536 25.2451C124.721 25.2451 123.014 26.6786 122.851 28.5451L122.84 28.6586H125.057L125.079 28.5657C125.275 27.6995 126.112 27.0911 127.471 27.0911C128.927 27.0911 129.753 27.8129 129.753 29.0092V29.8239L126.634 29.9992C123.927 30.1539 122.383 31.3089 122.383 33.1961V33.2167C122.383 35.1657 123.916 36.4961 126.199 36.4961ZM124.753 33.1651V33.1445C124.753 32.2267 125.536 31.6389 126.949 31.5564L129.753 31.3914V32.237C129.753 33.6498 128.493 34.712 126.84 34.712C125.579 34.712 124.753 34.1139 124.753 33.1651Z" fill="#FFF4DF"/>
<path d="M144.604 27.2249V25.4512H137.028V36.2999H139.376V27.2249H144.604Z" fill="#FFF4DF"/>
<path d="M149.02 39.9095H151.368V34.4748H151.422C152.096 35.7329 153.411 36.5167 155.031 36.5167C157.9 36.5167 159.781 34.3407 159.781 30.8861V30.8757C159.781 27.4107 157.911 25.2451 154.998 25.2451C153.368 25.2451 152.107 26.0289 151.422 27.3179H151.368V25.4514H149.02V39.9095ZM154.39 34.5986C152.618 34.5986 151.357 33.1342 151.357 30.8861V30.8757C151.357 28.6173 152.607 27.1529 154.39 27.1529C156.237 27.1529 157.389 28.5657 157.389 30.8757V30.8861C157.389 33.1754 156.237 34.5986 154.39 34.5986Z" fill="#FFF4DF"/>
<path d="M165.295 39.9196C167.534 39.9196 168.73 39.0534 169.578 36.8052L173.839 25.4512H171.36L168.479 34.2787H168.403L165.523 25.4512H162.979L167.143 36.3102L166.947 36.8259C166.556 37.8777 165.947 38.1562 164.838 38.1562C164.523 38.1562 164.251 38.1149 164.067 38.0737V39.8165C164.349 39.868 164.838 39.9196 165.295 39.9196Z" fill="#FFF4DF"/>
<path d="M181.907 36.5167C184.711 36.5167 186.57 35.1657 186.57 33.1445V33.1239C186.57 31.8554 185.743 30.9892 184.232 30.7004V30.6179C185.461 30.3498 186.255 29.432 186.255 28.2667V28.2461C186.255 26.3898 184.646 25.2451 182.015 25.2451C179.439 25.2451 177.754 26.4001 177.482 28.3286L177.472 28.4111H179.711L179.722 28.3389C179.896 27.5139 180.754 27.0086 181.983 27.0086C183.222 27.0086 183.961 27.5551 183.961 28.4832V28.5039C183.961 29.4732 183.254 29.9682 181.874 29.9682H180.232V31.5873H181.884C183.472 31.5873 184.232 32.0823 184.232 33.1239V33.1445C184.232 34.1345 183.341 34.7429 181.896 34.7429C180.602 34.7429 179.754 34.2686 179.494 33.392L179.461 33.2889H177.156L177.167 33.3817C177.395 35.2998 179.233 36.5167 181.907 36.5167Z" fill="#FFF4DF"/>
<path d="M191.084 36.2999H193.399L198.648 28.679H198.746V36.2999H201.083V25.4512H198.768L193.519 33.0412H193.409V25.4512H191.084V36.2999Z" fill="#FFF4DF"/>
<path d="M214.749 25.4512H205.239V27.2249H208.815V36.2999H211.174V27.2249H214.749V25.4512Z" fill="#FFF4DF"/>
<path d="M223.578 36.5167C226.351 36.5167 228.122 34.9492 228.481 33.227L228.513 33.1136H226.274L226.242 33.1961C225.949 34.0107 225.025 34.6914 223.633 34.6914C221.763 34.6914 220.579 33.4951 220.535 31.4429H228.633V30.6901C228.633 27.4314 226.666 25.2451 223.459 25.2451C220.253 25.2451 218.187 27.5139 218.187 30.9067V30.917C218.187 34.3407 220.22 36.5167 223.578 36.5167ZM223.47 27.0704C225.002 27.0704 226.122 27.9882 226.307 29.8651H220.568C220.785 28.0501 221.949 27.0704 223.47 27.0704Z" fill="#FFF4DF"/>
<path d="M240.074 36.2999H245.335C247.813 36.2999 249.357 35.083 249.357 33.1855V33.1649C249.357 31.8346 248.378 30.8652 246.9 30.6796V30.5971C247.998 30.4012 248.846 29.3802 248.846 28.2562V28.2355C248.846 26.5134 247.498 25.4512 245.27 25.4512H240.074V36.2999ZM242.4 29.9268V27.1012H244.781C245.911 27.1012 246.52 27.5859 246.52 28.483V28.5037C246.52 29.4627 245.867 29.9268 244.541 29.9268H242.4ZM242.4 34.6499V31.5459H244.628C246.172 31.5459 246.943 32.0305 246.943 33.0721V33.0927C246.943 34.124 246.226 34.6499 244.9 34.6499H242.4Z" fill="#FFF4DF"/>
<path d="M128.525 71.6421H123.919L121.395 64.0857H112.627L110.223 71.6421H105.739L114.427 45.917H119.793L128.525 71.6421ZM120.635 60.9156L118.353 54.1982C118.113 53.5119 117.66 51.8959 116.993 49.352H116.912C116.646 50.4462 116.218 52.0622 115.63 54.1982L113.389 60.9156H120.635Z" fill="#FFF4DF"/>
<path d="M150.867 62.1384C150.867 65.2932 149.974 67.7868 148.184 69.6176C146.582 71.2472 144.593 72.061 142.218 72.061C139.654 72.061 137.813 71.1832 136.691 69.4282H136.61V79.1995H132.287V59.1983C132.287 57.2149 132.232 55.1795 132.127 53.0918H135.929L136.17 56.0319H136.251C137.693 53.8166 139.882 52.7109 142.818 52.7109C145.114 52.7109 147.03 53.575 148.563 55.3051C150.101 57.0371 150.867 59.3142 150.867 62.1384ZM146.463 62.2892C146.463 60.4838 146.037 58.9953 145.181 57.8238C144.246 56.6022 142.991 55.9913 141.417 55.9913C140.35 55.9913 139.381 56.3316 138.515 57.0023C137.647 57.6789 137.079 58.5623 136.813 59.6564C136.68 60.1667 136.612 60.5843 136.612 60.9129V64.0057C136.612 65.355 137.046 66.4939 137.914 67.4231C138.783 68.3531 139.91 68.8171 141.297 68.8171C142.926 68.8171 144.193 68.2178 145.1 67.0232C146.008 65.8267 146.463 64.2493 146.463 62.2892Z" fill="#FFF4DF"/>
<path d="M173.252 62.1384C173.252 65.2932 172.358 67.7868 170.567 69.6176C168.967 71.2472 166.977 72.061 164.602 72.061C162.039 72.061 160.198 71.1832 159.078 69.4282H158.997V79.1995H154.673V59.1983C154.673 57.2149 154.618 55.1795 154.513 53.0918H158.316L158.557 56.0319H158.638C160.078 53.8166 162.266 52.7109 165.205 52.7109C167.498 52.7109 169.415 53.575 170.952 55.3051C172.483 57.0371 173.252 59.3142 173.252 62.1384ZM168.847 62.2892C168.847 60.4838 168.419 58.9953 167.564 57.8238C166.629 56.6022 165.377 55.9913 163.802 55.9913C162.733 55.9913 161.766 56.3316 160.897 57.0023C160.029 57.6789 159.464 58.5623 159.198 59.6564C159.066 60.1667 158.997 60.5843 158.997 60.9129V64.0057C158.997 65.355 159.431 66.4939 160.295 67.4231C161.163 68.3511 162.291 68.8171 163.682 68.8171C165.311 68.8171 166.578 68.2178 167.485 67.0232C168.393 65.8267 168.847 64.2493 168.847 62.2892Z" fill="#FFF4DF"/>
<path d="M198.279 64.4279C198.279 66.6158 197.482 68.3965 195.882 69.7706C194.124 71.2728 191.676 72.0225 188.53 72.0225C185.626 72.0225 183.297 71.4893 181.535 70.4201L182.537 66.9854C184.435 68.0797 186.518 68.6282 188.787 68.6282C190.416 68.6282 191.683 68.2764 192.594 67.5768C193.5 66.8772 193.953 65.9376 193.953 64.7662C193.953 63.7223 193.58 62.8428 192.831 62.1295C192.087 61.4161 190.844 60.7532 189.108 60.1404C184.383 58.4605 182.022 55.9998 182.022 52.7639C182.022 50.6491 182.849 48.9151 184.506 47.5658C186.157 46.2147 188.36 45.54 191.114 45.54C193.57 45.54 195.61 45.9479 197.238 46.7617L196.158 50.1214C194.636 49.3327 192.917 48.9383 190.992 48.9383C189.471 48.9383 188.282 49.296 187.431 50.0073C186.711 50.6433 186.35 51.4185 186.35 52.3367C186.35 53.3534 186.762 54.1943 187.589 54.8554C188.309 55.4662 189.617 56.1274 191.515 56.8406C193.837 57.7318 195.543 58.7737 196.64 59.9683C197.734 61.1591 198.279 62.6495 198.279 64.4279Z" fill="#FFF4DF"/>
<path d="M212.574 56.1854H207.808V65.1915C207.808 67.4823 208.648 68.6268 210.331 68.6268C211.104 68.6268 211.745 68.5628 212.252 68.4354L212.371 71.5651C211.519 71.868 210.398 72.0212 209.009 72.0212C207.301 72.0212 205.967 71.5242 205.003 70.5329C204.044 69.5389 203.562 67.8724 203.562 65.5318V56.1816H200.722V53.0887H203.562V49.6924L207.808 48.4707V53.0887H212.574V56.1854Z" fill="#FFF4DF"/>
<path d="M234.078 62.2139C234.078 65.0651 233.222 67.406 231.514 69.2368C229.724 71.1211 227.347 72.061 224.384 72.061C221.528 72.061 219.255 71.1581 217.56 69.3524C215.864 67.5473 215.016 65.2681 215.016 62.5212C215.016 59.6468 215.888 57.2923 217.638 55.4617C219.384 53.6292 221.741 52.7129 224.704 52.7129C227.56 52.7129 229.857 53.6156 231.592 55.423C233.251 57.1763 234.078 59.4399 234.078 62.2139ZM229.592 62.3472C229.592 60.6365 229.208 59.1693 228.432 57.9457C227.526 56.465 226.23 55.7265 224.55 55.7265C222.812 55.7265 221.491 56.4669 220.585 57.9457C219.809 59.1713 219.425 60.6616 219.425 62.4245C219.425 64.1353 219.809 65.6025 220.585 66.8239C221.52 68.3049 222.826 69.0435 224.511 69.0435C226.163 69.0435 227.458 68.2898 228.393 66.7856C229.19 65.5387 229.592 64.056 229.592 62.3472Z" fill="#FFF4DF"/>
<path d="M248.132 56.7162C247.704 56.6408 247.248 56.6022 246.769 56.6022C245.248 56.6022 244.072 57.1492 243.245 58.2452C242.525 59.2118 242.163 60.4335 242.163 61.9084V71.6412H237.842L237.882 58.9334C237.882 56.7955 237.827 54.8489 237.72 53.0937H241.486L241.645 56.6428H241.764C242.221 55.423 242.941 54.441 243.926 53.7045C244.889 53.0415 245.93 52.7109 247.051 52.7109C247.451 52.7109 247.811 52.738 248.132 52.7863V56.7162Z" fill="#FFF4DF"/>
<path d="M267.469 61.4895C267.469 62.2279 267.418 62.8504 267.311 63.3588H254.339C254.39 65.1913 255.016 66.5927 256.221 67.5596C257.314 68.4235 258.728 68.8565 260.464 68.8565C262.385 68.8565 264.136 68.5647 265.713 67.9787L266.39 70.8398C264.548 71.6054 262.374 71.9862 259.866 71.9862C256.848 71.9862 254.479 71.1394 252.755 69.4478C251.035 67.7562 250.173 65.4851 250.173 62.6358C250.173 59.8387 250.975 57.5093 252.579 55.6517C254.258 53.6684 256.527 52.6768 259.383 52.6768C262.188 52.6768 264.311 53.6684 265.753 55.6517C266.895 57.2271 267.469 59.1756 267.469 61.4895ZM263.346 60.4205C263.374 59.1988 263.092 58.1434 262.506 57.2523C261.758 56.106 260.608 55.5338 259.06 55.5338C257.647 55.5338 256.497 56.0925 255.619 57.2136C254.899 58.1047 254.471 59.1737 254.339 60.4186H263.346V60.4205Z" fill="#FFF4DF"/>
</g>
<defs>
<clipPath id="clip0_85_233">
<rect width="352" height="99" fill="white"/>
</clipPath>
</defs>
</svg>
