<svg width="352" height="99" viewBox="0 0 352 99" fill="none" xmlns="http://www.w3.org/2000/svg">
<g clip-path="url(#clip0_85_218)">
<path d="M0 13.2C0 5.90984 6.22909 0 13.913 0H338.087C345.771 0 352 5.90984 352 13.2V85.8C352 93.0904 345.771 99 338.087 99H13.913C6.22908 99 0 93.0904 0 85.8V13.2Z" fill="black" fill-opacity="0.15"/>
<path fill-rule="evenodd" clip-rule="evenodd" d="M0 85.8V13.2C0 5.90984 6.22908 0 13.913 0H338.087C345.771 0 352 5.90984 352 13.2V85.8C352 93.0904 345.771 99 338.087 99H13.913C6.22909 99 0 93.0904 0 85.8ZM2.08696 85.8V13.2C2.08696 7.00339 7.3817 1.98 13.913 1.98H338.087C344.618 1.98 349.913 7.00339 349.913 13.2V85.8C349.913 91.9967 344.618 97.02 338.087 97.02H13.913C7.3817 97.02 2.08696 91.9967 2.08696 85.8Z" fill="#FFF4DF"/>
<path d="M178.355 53.7831C172.09 53.7831 166.915 58.4244 166.915 64.7881C166.915 71.0999 172.036 75.7932 178.355 75.7932C184.673 75.7932 189.794 71.1514 189.794 64.7881C189.794 58.4244 184.673 53.7831 178.355 53.7831ZM178.355 71.4141C174.922 71.4141 171.928 68.6487 171.928 64.739C171.928 60.775 174.924 58.064 178.355 58.064C181.785 58.064 184.781 60.775 184.781 64.739C184.781 68.6487 181.785 71.4141 178.355 71.4141ZM153.459 53.7831C147.141 53.7831 142.019 58.4244 142.019 64.7881C142.019 71.0999 147.141 75.7932 153.459 75.7932C159.778 75.7932 164.899 71.1514 164.899 64.7881C164.899 58.4244 159.778 53.7831 153.459 53.7831H153.459ZM153.459 71.4141C150.026 71.4141 147.033 68.6487 147.033 64.739C147.033 60.775 150.029 58.064 153.459 58.064C156.893 58.064 159.887 60.775 159.887 64.739C159.887 68.6487 156.944 71.4141 153.459 71.4141ZM123.88 57.1737V61.815H135.427C135.099 64.4225 134.176 66.3525 132.813 67.6573C131.125 69.2737 128.51 71.0478 123.88 71.0478C116.742 71.0478 111.242 65.5196 111.242 58.6865C111.242 51.8534 116.745 46.2207 123.88 46.2207C127.746 46.2207 130.526 47.6816 132.596 49.5599L136.026 46.2727C133.138 43.6137 129.272 41.5801 123.88 41.5801C114.127 41.5801 105.956 49.2458 105.956 58.5826C105.956 67.92 114.127 75.5859 123.88 75.5859C129.163 75.5859 133.087 73.9174 136.246 70.7864C139.459 67.7095 140.44 63.3792 140.44 59.8852C140.44 58.7904 140.332 57.799 140.167 56.9641L123.88 57.1737ZM244.922 60.7722C243.996 58.3205 241.056 53.7831 235.17 53.7831C229.286 53.7831 224.438 58.2171 224.438 64.7881C224.438 70.9415 229.286 75.7932 235.715 75.7932C240.945 75.7932 243.942 72.7162 245.194 70.9415L241.327 68.4381C240.019 70.265 238.276 71.4629 235.715 71.4629C233.155 71.4629 231.359 70.368 230.213 68.1246L245.411 62.0229L244.922 60.7722ZM229.451 64.4768C229.343 60.2508 232.884 58.0611 235.387 58.0611C237.404 58.0611 239.038 59.0001 239.636 60.409L229.451 64.4768ZM217.085 75.0639H222.097V42.8302H217.085V75.0639ZM208.915 56.2349H208.753C207.61 54.9299 205.485 53.7831 202.76 53.7831C197.039 53.7831 191.864 58.6345 191.864 64.7881C191.864 70.9415 197.094 75.7417 202.76 75.7417C205.482 75.7417 207.607 74.5939 208.753 73.2376H208.915V74.8018C208.915 79.0285 206.572 81.2692 202.814 81.2692C199.763 81.2692 197.855 79.1314 197.094 77.3574L192.737 79.1314C193.988 82.0526 197.313 85.6509 202.814 85.6509C208.696 85.6509 213.654 82.3126 213.654 74.229V54.4604H208.915V56.2349ZM203.196 71.4141C199.763 71.4141 196.877 68.6487 196.877 64.7909C196.877 60.9332 199.766 58.1155 203.196 58.1155C206.575 58.1155 209.297 60.9332 209.297 64.7909C209.295 68.5965 206.572 71.4141 203.196 71.4141ZM268.292 42.8308H256.308V75.0639H261.32V62.8578H268.292C273.85 62.8578 279.296 58.9972 279.296 52.8442C279.296 46.6908 273.85 42.8308 268.292 42.8308ZM268.454 58.3753H261.372V47.3155H268.454C272.159 47.3155 274.337 50.2886 274.337 52.8437C274.285 55.3473 272.161 58.3753 268.454 58.3753ZM299.29 53.7311C295.694 53.7311 291.935 55.244 290.41 58.6865L294.824 60.4609C295.805 58.6865 297.547 58.1131 299.4 58.1131C302.015 58.1131 304.63 59.6254 304.684 62.2844V62.5985C303.757 62.0771 301.853 61.3455 299.455 61.3455C294.662 61.3455 289.811 63.9011 289.811 68.5965C289.811 72.9261 293.734 75.6895 298.092 75.6895C301.47 75.6895 303.321 74.229 304.465 72.5083H304.628V75.0124H309.474V62.6499C309.421 56.9658 305.009 53.7311 299.29 53.7311ZM298.691 71.3619C297.056 71.3619 294.767 70.5785 294.767 68.6506C294.767 66.1473 297.599 65.2083 300.051 65.2083C302.229 65.2083 303.264 65.6778 304.628 66.303C304.246 69.2763 301.576 71.3619 298.691 71.3619ZM326.962 54.4633L321.242 68.3886H321.079L315.143 54.4628H309.751L318.684 73.9689L313.617 84.8701H318.846L332.518 54.4628H326.961L326.962 54.4633ZM282.075 75.0639H287.088V42.8302H282.075V75.0639Z" fill="#FFF4DF"/>
<path d="M121.102 27.7221V32.5084H119.018V29.6995H109.434V32.5084H107.35V27.7221H108.909C109.428 27.0322 109.811 26.0404 110.058 24.7468C110.305 23.4409 110.428 22.0241 110.428 20.4964V16.4678H119.563V27.7221H121.102ZM117.382 27.7221V18.4451H112.59V20.8475C112.59 22.2274 112.473 23.5087 112.239 24.6914C112.019 25.8741 111.681 26.8844 111.226 27.7221H117.382Z" fill="#FFF4DF"/>
<path d="M129.946 29.9959C128.595 29.9959 127.368 29.6941 126.265 29.0904C125.161 28.4744 124.291 27.6366 123.654 26.5771C123.031 25.5176 122.72 24.3534 122.72 23.0844C122.72 21.8154 123.031 20.6574 123.654 19.6101C124.291 18.5506 125.161 17.7128 126.265 17.0969C127.368 16.4809 128.595 16.1729 129.946 16.1729C131.297 16.1729 132.518 16.4809 133.608 17.0969C134.712 17.7128 135.582 18.5506 136.218 19.6101C136.854 20.6574 137.173 21.8154 137.173 23.0844C137.173 24.3534 136.854 25.5176 136.218 26.5771C135.594 27.6366 134.731 28.4744 133.628 29.0904C132.524 29.6941 131.297 29.9959 129.946 29.9959ZM129.946 28.0185C130.868 28.0185 131.712 27.8091 132.479 27.3902C133.244 26.9713 133.848 26.3923 134.29 25.6531C134.731 24.9016 134.952 24.0453 134.952 23.0844C134.952 22.1234 134.731 21.2733 134.29 20.5341C133.848 19.7826 133.244 19.1974 132.479 18.7785C131.712 18.3596 130.868 18.1502 129.946 18.1502C129.024 18.1502 128.18 18.3596 127.414 18.7785C126.648 19.1974 126.038 19.7826 125.583 20.5341C125.142 21.2733 124.92 22.1234 124.92 23.0844C124.92 24.0453 125.142 24.9016 125.583 25.6531C126.038 26.3923 126.648 26.9713 127.414 27.3902C128.18 27.8091 129.024 28.0185 129.946 28.0185Z" fill="#FFF4DF"/>
<path d="M146.059 29.9959C144.708 29.9959 143.475 29.6941 142.358 29.0904C141.241 28.4867 140.365 27.6551 139.729 26.5956C139.092 25.5361 138.774 24.3656 138.774 23.0844C138.774 21.8031 139.092 20.6327 139.729 19.5732C140.365 18.5137 141.241 17.6821 142.358 17.0784C143.475 16.4747 144.708 16.1729 146.059 16.1729C147.111 16.1729 148.065 16.3577 148.922 16.7273C149.792 17.0969 150.559 17.6328 151.221 18.335L149.663 19.758C149.182 19.2159 148.65 18.8155 148.065 18.5568C147.481 18.2857 146.812 18.1502 146.059 18.1502C145.124 18.1502 144.267 18.3535 143.488 18.7601C142.721 19.1666 142.111 19.7456 141.657 20.4972C141.202 21.2364 140.975 22.0988 140.975 23.0844C140.975 24.0699 141.202 24.9385 141.657 25.6901C142.111 26.4293 142.721 27.0021 143.488 27.4087C144.267 27.8153 145.124 28.0185 146.059 28.0185C147.617 28.0185 148.942 27.4026 150.033 26.1705L151.61 27.612C150.935 28.3635 150.123 28.9487 149.176 29.3676C148.228 29.7865 147.189 29.9959 146.059 29.9959Z" fill="#FFF4DF"/>
<path d="M156.87 18.4451H152.975V16.4678H162.947V18.4451H159.052V29.6995H156.87V18.4451Z" fill="#FFF4DF"/>
<path d="M166.559 29.9951C166.079 29.9951 165.67 29.9151 165.332 29.7549V27.7406C165.761 27.9623 166.15 28.0732 166.501 28.0732C166.851 28.0732 167.13 28.0116 167.338 27.8884C167.546 27.7529 167.734 27.5065 167.903 27.1492L168.39 26.1883L163.754 16.4678H166.189L169.442 23.8043H169.559L172.831 16.4678H175.266L169.929 27.5927C169.539 28.4182 169.066 29.028 168.507 29.4223C167.962 29.8042 167.313 29.9951 166.559 29.9951Z" fill="#FFF4DF"/>
<path d="M177.158 16.4678H187.54V29.6995H185.358V18.4451H179.339V29.6995H177.158V16.4678Z" fill="#FFF4DF"/>
<path d="M190.72 16.4678H192.902V21.9563H199.368V16.4678H201.53V29.6995H199.368V23.9152H192.902V29.6995H190.72V16.4678Z" fill="#FFF4DF"/>
<path d="M211.055 29.9959C209.704 29.9959 208.477 29.6941 207.373 29.0904C206.27 28.4744 205.4 27.6366 204.763 26.5771C204.14 25.5176 203.828 24.3534 203.828 23.0844C203.828 21.8154 204.14 20.6574 204.763 19.6101C205.4 18.5506 206.27 17.7128 207.373 17.0969C208.477 16.4809 209.704 16.1729 211.055 16.1729C212.406 16.1729 213.626 16.4809 214.717 17.0969C215.821 17.7128 216.691 18.5506 217.327 19.6101C217.963 20.6574 218.281 21.8154 218.281 23.0844C218.281 24.3534 217.963 25.5176 217.327 26.5771C216.703 27.6366 215.84 28.4744 214.736 29.0904C213.633 29.6941 212.406 29.9959 211.055 29.9959ZM211.055 28.0185C211.977 28.0185 212.821 27.8091 213.587 27.3902C214.353 26.9713 214.957 26.3923 215.398 25.6531C215.84 24.9016 216.061 24.0453 216.061 23.0844C216.061 22.1234 215.84 21.2733 215.398 20.5341C214.957 19.7826 214.353 19.1974 213.587 18.7785C212.821 18.3596 211.977 18.1502 211.055 18.1502C210.133 18.1502 209.289 18.3596 208.522 18.7785C207.757 19.1974 207.146 19.7826 206.691 20.5341C206.25 21.2733 206.029 22.1234 206.029 23.0844C206.029 24.0453 206.25 24.9016 206.691 25.6531C207.146 26.3923 207.757 26.9713 208.522 27.3902C209.289 27.8091 210.133 28.0185 211.055 28.0185Z" fill="#FFF4DF"/>
<path d="M225.339 16.4678H230.579C231.319 16.4678 232.001 16.6218 232.624 16.9298C233.261 17.2378 233.767 17.6628 234.143 18.2049C234.52 18.747 234.708 19.3445 234.708 19.9975C234.708 20.6504 234.533 21.2171 234.182 21.6976C233.845 22.1781 233.397 22.5416 232.838 22.7879V22.8988C233.539 23.1329 234.104 23.521 234.533 24.0631C234.975 24.6051 235.195 25.2396 235.195 25.9665C235.195 26.6933 234.994 27.3402 234.591 27.9069C234.202 28.4736 233.67 28.9172 232.994 29.2375C232.332 29.5455 231.605 29.6995 230.813 29.6995H225.339V16.4678ZM230.481 22.0118C231.105 22.0118 231.605 21.827 231.981 21.4574C232.371 21.0878 232.566 20.6627 232.566 20.1823C232.566 19.7018 232.378 19.2829 232.001 18.9256C231.638 18.556 231.157 18.3712 230.559 18.3712H227.521V22.0118H230.481ZM230.813 27.7775C231.475 27.7775 232.001 27.5804 232.39 27.1862C232.793 26.792 232.994 26.3361 232.994 25.8187C232.994 25.2889 232.787 24.8331 232.371 24.4511C231.969 24.0569 231.423 23.8598 230.735 23.8598H227.521V27.7775H230.813Z" fill="#FFF4DF"/>
<path fill-rule="evenodd" clip-rule="evenodd" d="M75.191 59.6058L64.7768 49.629L75.1826 39.6032C82.615 43.5271 88.3221 46.5252 89.4184 47.075C92.96 48.8985 91.1604 51.2463 89.4184 52.1338C89.0414 52.3132 85.8991 53.9675 81.2369 56.4219L81.2327 56.424C80.4821 56.8192 79.6918 57.2352 78.8682 57.6693C77.7057 58.2819 76.4751 58.9302 75.191 59.6058ZM73.2946 60.6032L63.3124 51.0399L29.9556 83.1787C30.3576 83.0625 30.7841 82.8869 31.2397 82.6474C31.5809 82.4685 32.411 82.0342 33.631 81.3953L33.6968 81.361L33.7037 81.3577C40.5691 77.7653 59.4196 67.9016 73.2946 60.6032ZM27.2303 82.982C26.2516 82.3504 25.7391 81.029 25.7391 79.3599V20.1587C25.7391 18.3133 26.4184 17.1777 27.359 16.5956L61.8438 49.6329L27.2303 82.982ZM29.912 16.2275L63.3083 48.222L73.2522 38.6411C67.0861 35.4193 33.4662 17.855 31.2392 16.7204C30.816 16.4795 30.3654 16.3174 29.912 16.2275Z" fill="#FFF4DF"/>
</g>
<defs>
<clipPath id="clip0_85_218">
<rect width="352" height="99" fill="white"/>
</clipPath>
</defs>
</svg>
