<svg width="50" height="50" viewBox="0 0 50 50" fill="none" xmlns="http://www.w3.org/2000/svg">
<path d="M12.5616 28.716C10.8578 26.599 9.53707 24.243 8.59933 21.648C7.66158 19.053 7.19339 16.2873 7.19475 13.3508C7.19475 12.3947 7.24587 11.464 7.34809 10.5584C7.45032 9.65291 7.60366 8.75695 7.80811 7.87055L4.23022 11.4045L2.0835 9.25342L9.23926 2.08301L16.395 9.25342L14.2483 11.4045L10.926 8.12664C10.7215 8.98026 10.5593 9.84208 10.4394 10.7121C10.3194 11.5821 10.2601 12.4617 10.2615 13.3508C10.2615 15.8434 10.6534 18.1994 11.4371 20.4188C12.2208 22.6382 13.3283 24.6698 14.7594 26.5136L12.5616 28.716ZM30.3999 44.7982L16.4972 39.4204L17.9284 35.5279C18.1669 34.9133 18.5077 34.3758 18.9506 33.9155C19.3936 33.4553 19.9388 33.1562 20.5863 33.0182L24.6241 32.1987L17.8262 16.9872C17.2469 15.6897 17.2128 14.3833 17.7239 13.0681C18.2351 11.7528 19.1381 10.8056 20.4329 10.2265C21.7278 9.64608 23.0308 9.60375 24.342 10.0995C25.6532 10.5953 26.5991 11.4913 27.1798 12.7874L30.7577 20.8285L31.9844 20.3163C32.1207 20.2481 32.274 20.2139 32.4444 20.2139H32.9555L41.338 20.5212C42.2239 20.5554 43.0076 20.8627 43.6891 21.4431C44.3706 22.0236 44.8307 22.7577 45.0692 23.6455L47.9315 34.6059C48.2041 35.5961 48.11 36.5351 47.6493 37.4229C47.1887 38.3107 46.499 38.9594 45.5803 39.3692L33.62 44.6957C33.1088 44.9348 32.5718 45.0631 32.0089 45.0809C31.446 45.0987 30.9096 45.0044 30.3999 44.7982ZM31.9844 40.9569L43.8936 35.6303L41.1335 24.6186L31.6777 24.2601L28.4576 25.6941L23.4486 14.4776C23.3123 14.2044 23.116 14.0166 22.8597 13.9142C22.6035 13.8118 22.3398 13.8288 22.0685 13.9654C21.7959 14.102 21.6085 14.2898 21.5063 14.5288C21.4041 14.7678 21.4211 15.0239 21.5574 15.2971L30.3999 35.1181L21.7107 37.0132L31.9844 40.9569Z" fill="white"/>
</svg>
